<svg xmlns="http://www.w3.org/2000/svg" xmlns:xlink="http://www.w3.org/1999/xlink" width="500" zoomAndPan="magnify" viewBox="0 0 375 374.999991" height="500" preserveAspectRatio="xMidYMid meet" version="1.0"><defs><clipPath id="id1"><path d="M 16.40625 0 L 279 0 L 279 295 L 16.40625 295 Z M 16.40625 0 " clip-rule="nonzero"/></clipPath><clipPath id="id2"><path d="M 97 97 L 358.40625 97 L 358.40625 375 L 97 375 Z M 97 97 " clip-rule="nonzero"/></clipPath></defs><path fill="#000000" d="M 143.777344 143.554688 L 144.636719 261.304688 L 157.382812 261.214844 L 156.523438 143.464844 L 143.777344 143.554688 " fill-opacity="1" fill-rule="nonzero"/><path fill="#000000" d="M 163.957031 143.410156 L 164.816406 261.160156 L 177.5625 261.070312 L 176.703125 143.316406 L 163.957031 143.410156 " fill-opacity="1" fill-rule="nonzero"/><g clip-path="url(#id1)"><path fill="#000000" d="M 278.363281 145.773438 L 278.363281 146.558594 C 278.363281 189.070312 264.277344 225.632812 237.628906 252.285156 C 210.023438 279.898438 170.941406 294.492188 124.613281 294.492188 L 108.1875 294.492188 L 108.1875 241.789062 L 130.496094 241.789062 C 189.421875 241.789062 224.601562 206.699219 224.601562 147.929688 L 224.601562 146.765625 C 224.601562 87.992188 189.421875 52.902344 130.496094 52.902344 L 34.925781 52.902344 L 34.925781 67.960938 L 127.148438 67.960938 C 175.226562 67.960938 206.296875 98.96875 206.296875 146.953125 L 206.296875 147.738281 C 206.296875 171.839844 198.6875 191.96875 184.292969 205.945312 C 170.289062 219.542969 150.53125 226.730469 127.148438 226.730469 L 108.1875 226.730469 L 108.1875 208.210938 L 127.148438 208.210938 C 165.117188 208.210938 187.789062 185.605469 187.789062 147.738281 L 187.789062 146.953125 C 187.789062 109.085938 165.117188 86.484375 127.148438 86.484375 L 16.417969 86.484375 L 16.417969 34.386719 L 130.496094 34.386719 C 163.832031 34.386719 191.988281 44.664062 211.929688 64.105469 C 232.328125 83.992188 243.109375 112.574219 243.109375 146.765625 L 243.109375 147.929688 C 243.109375 182.339844 232.324219 211.003906 211.914062 230.820312 C 192.050781 250.109375 163.898438 260.304688 130.496094 260.304688 L 126.699219 260.304688 L 126.699219 275.953125 C 207.660156 275.097656 259.855469 224.507812 259.855469 146.558594 L 259.855469 145.773438 C 259.855469 67.402344 208.585938 18.722656 126.0625 18.722656 L 25.675781 18.722656 L 25.675781 0.203125 L 126.0625 0.203125 C 172.15625 0.203125 210.875 14.371094 238.035156 41.183594 C 264.417969 67.222656 278.363281 103.390625 278.363281 145.773438 " fill-opacity="1" fill-rule="nonzero"/></g><path fill="#000000" d="M 75.226562 123.449219 L 76.476562 294.449219 L 94.984375 294.3125 L 93.738281 123.3125 L 75.226562 123.449219 " fill-opacity="1" fill-rule="nonzero"/><g clip-path="url(#id2)"><path fill="#5271ff" d="M 174.523438 301.554688 C 168.53125 303.066406 162.367188 304.289062 156.039062 305.222656 L 156.546875 374.5625 L 175.054688 374.429688 Z M 144.878906 306.554688 C 138.84375 307.113281 132.671875 307.414062 126.378906 307.457031 L 126.867188 374.585938 L 145.375 374.449219 Z M 115.582031 307.472656 L 97.070312 307.472656 L 97.5625 374.796875 L 116.070312 374.664062 Z M 318.105469 121.296875 C 308.496094 111.808594 297.433594 103.898438 285.109375 97.648438 C 287.230469 105.375 288.8125 113.382812 289.851562 121.636719 C 321.835938 143.257812 339.925781 179.332031 339.925781 225.886719 L 339.925781 226.671875 C 339.925781 304.621094 287.734375 355.210938 206.769531 356.066406 L 206.769531 340.421875 L 210.566406 340.421875 C 243.96875 340.421875 272.121094 330.222656 291.984375 310.933594 C 312.390625 291.121094 323.179688 262.457031 323.179688 228.042969 L 323.179688 226.878906 C 323.179688 192.691406 312.398438 164.109375 292 144.222656 C 291.773438 144 291.550781 143.78125 291.316406 143.5625 C 291.332031 144.296875 291.332031 145.03125 291.332031 145.773438 L 291.332031 146.558594 C 291.332031 154.722656 290.84375 162.703125 289.875 170.484375 C 299.527344 185.394531 304.671875 204.40625 304.671875 226.878906 L 304.671875 228.042969 C 304.671875 286.816406 269.492188 321.90625 210.566406 321.90625 L 188.261719 321.90625 L 188.261719 374.605469 L 204.683594 374.605469 C 251.011719 374.605469 290.089844 360.011719 317.699219 332.402344 C 344.34375 305.746094 358.433594 269.1875 358.433594 226.671875 L 358.433594 225.886719 C 358.433594 183.507812 344.488281 147.339844 318.105469 121.296875 Z M 283.078125 201.570312 C 282.15625 204.4375 281.160156 207.257812 280.09375 210.035156 C 276.65625 218.941406 272.472656 227.378906 267.550781 235.296875 C 264.804688 267.804688 243.765625 287.296875 209.945312 288.285156 C 209.046875 288.316406 208.136719 288.324219 207.21875 288.324219 L 188.261719 288.324219 L 188.261719 306.847656 L 207.21875 306.847656 C 230.597656 306.847656 250.359375 299.660156 264.363281 286.058594 C 278.761719 272.082031 286.367188 251.957031 286.367188 227.855469 L 286.367188 227.070312 C 286.367188 217.921875 285.238281 209.390625 283.078125 201.570312 Z M 132.535156 148.078125 L 132.535156 133.019531 L 173.46875 133.019531 C 171.929688 125.691406 169.089844 119.496094 165.023438 114.5 L 114.027344 114.5 L 114.027344 166.59375 L 172.183594 166.59375 C 173.898438 161.148438 174.789062 154.960938 174.816406 148.078125 Z M 209.945312 288.285156 C 203.050781 291.84375 195.816406 294.914062 188.261719 297.496094 L 188.261719 288.324219 L 207.21875 288.324219 C 208.136719 288.324219 209.046875 288.316406 209.945312 288.285156 " fill-opacity="1" fill-rule="nonzero"/></g></svg>